<?xml version="1.0" encoding="utf-8"?>
<!-- Generator: Adobe Illustrator 24.0.2, SVG Export Plug-In . SVG Version: 6.00 Build 0)  -->
<svg version="1.1" id="Layer_1" xmlns="http://www.w3.org/2000/svg" xmlns:xlink="http://www.w3.org/1999/xlink" x="0px" y="0px"
	 viewBox="0 0 31.1 31" style="enable-background:new 0 0 31.1 31;" xml:space="preserve">
<style type="text/css">
	.st0{fill-rule:evenodd;clip-rule:evenodd;}
</style>
<g>
	<path class="st0" d="M14.6,3.9c0,0.2-0.9,0.3-0.7-0.2c0.2,0,0.2,0.1,0.4,0.2c0-0.3-0.4-0.2-0.3-0.6C14.4,3.3,14.3,3.8,14.6,3.9z"/>
	<path class="st0" d="M21.5,17c0.4,0.4-0.7,0.4-1,0.6C20.7,17.1,21.4,17.1,21.5,17z"/>
	<path class="st0" d="M14.8,21.3c0.4,0.2-0.2,0.5,0,0.9C14.3,21.9,14.7,21.7,14.8,21.3z"/>
	<path class="st0" d="M15,0c0.1,0.2,0.5,0.1,0.4,0.5c-0.2,0-0.2-0.1-0.4-0.2c-0.1,0.5,0.4,0.3,0.3,0.8c-0.4-0.2-0.5,0.3-0.6,0.7
		c0,0.3,0.2,0.3,0.5,0.3c-0.2,0.2-0.1,0.5,0.1,0.6c0,0.2-0.1,0.1-0.1,0C15,3,15.2,3.7,14.9,3.9C14.5,3.7,14.4,3.2,14,3
		c-0.3,0.3-0.2,0.7-1,0.7c0.1-0.3-0.1-0.9-0.3-0.5c-0.5-0.1,0.6-0.7,0.4,0c0.5-0.2-0.2-0.4-0.3-0.6c-0.2,0-0.4,0.1-0.4,0.3
		c-0.7-0.8,0-0.6-0.3-1.4c0.4,0,0.3-0.2,0.6,0c-0.4-0.6,0.4-0.8,0.4-1.3c0.7,0,0.6,0.5,1-0.1c0.2,0.1,0,0.3,0,0.4
		C14.6,0.2,15,0.7,15,0z"/>
	<path class="st0" d="M19.7,3c-0.3-0.3-0.6,0.2-0.8-0.2c0.7-0.2,1-0.8,1.5-0.9c0-0.3,0-0.7,0-1c-0.3,0-0.3-0.1-0.1-0.3
		c-0.6,0-0.2-0.2-0.4-0.6c-0.3,0.7-0.6,0.1-0.8,0.3c0.1,0-0.9,0.7-1.1,0.7c0,0.3,0.2,0.3,0.3,0.5c-0.4,0,0,0.9-0.6,1
		c0.2,0.2,0.6,0.1,0.3,0.5c0.5,0.2,0.3-0.1,0.4,0.5c-0.2,0-0.3-0.2-0.3,0.1c0,0.3,0.6-0.3,0.3,0.3c0.2-0.1,0.4,0.2,0.4,0
		c-0.4,0,0.4-0.8,0.3-0.1c0.3,0,0.3-0.2,0.6-0.1C19.5,3.4,19.6,3.2,19.7,3z M18.9,1.5c0.2-0.3,0.1,0.6,0,0.7
		c-0.1-0.1-0.2-0.2-0.4-0.2C18.6,1.9,18.8,1.8,18.9,1.5z"/>
	<path class="st0" d="M8.7,3.6C8.2,3.6,8.4,3.1,8.3,2.8C8,2.9,7.8,3.3,7.7,2.8C7.5,3.1,7.2,3.1,7.4,3.5c-0.5-0.7-0.3-1-0.7-1.7
		c0-0.3,0.1-0.5,0.4-0.4C6.6,1.5,6.7,0.9,7,0.4c0.8-0.1,1.6,0.5,1.5,0.9C8.7,1.2,8.9,1.1,9.1,1c0-0.2-0.8,0.2-0.7-0.6
		c0.2,0.4,0.5,0.4,0.4-0.3C9.2,0,9,0.6,9.5,0.4c-0.1,0.4-0.1,0.9-0.4,1c0.1,0.3,0.2-0.2,0.4,0.2C9.5,2,9,2.5,9.4,2.8
		C9.2,3.1,8.3,2.9,8.7,3.6z"/>
	<path class="st0" d="M24.5,3.1c-0.3,0.3,0.6,0.9,0,1.2c-0.5,0,0.3-0.6-0.1-0.6c-0.2,0.1,0,0.2-0.1,0.6c-0.2-0.2-0.3-0.4-0.5-0.5
		c0.1-0.3,0.3,0,0.4,0c0-0.1,0-0.2,0-0.3c-0.1-0.3-0.2,0.2-0.4-0.2c0.3-0.6-0.2-0.2-0.1-0.9c0.2,0,0.2,0.1,0.4,0.2
		c-0.2-0.4-0.3-0.5-0.1-0.9c0.6,0.2,1.1-0.4,1.5-0.6c0.3,0,0.1,0.6,0.4,0.6C25.5,2,25.5,2,25.6,2.5c-0.2,0-0.3-0.2-0.6-0.2
		c-0.1,0.4,0.3,0.3,0.4,0.5c-0.1,0.1-0.1,0.2-0.1,0.4c-0.1-0.1-0.3-0.2-0.6-0.2c-0.1,0.3,0.2,0.3,0.4,0.3C25,3.8,24.5,3.4,24.5,3.1z
		"/>
	<path class="st0" d="M15,1.9c0-0.2,0.3-0.1,0.6-0.1c-0.2,0.6,0.5,0.3,0.3,0.9C15.5,2.5,15.6,1.8,15,1.9z"/>
	<path class="st0" d="M4.1,6.1C4,6.5,4.5,6.4,4.5,6.7C3.7,6.8,4.2,7.4,3.8,7.9c0.6,0,0.3,0.1,0.1,0.3c0.3,0,0.5,0,0.7,0.2
		C4.9,8.1,4.5,8,4.8,7.9c0.1,0,0.2,0,0.3,0c0,0.2-0.1,0.3-0.1,0.4c0.6,0,0.8-0.3,1-0.3C5.5,7.8,5.1,7.7,5.1,7.1
		c0.3,0.2,0.3,0.7,1,0.6C6.3,7.2,6.1,7,6.4,6.5c-0.3-0.3-0.7-0.1-1,0c0-0.2-0.1-0.2-0.1-0.3c0.1-0.1,0.3-0.3,0.4-0.4
		c-0.2,0-0.1-0.2,0-0.3C5.1,6.2,4.9,5.7,4.1,6.1z M5.6,6.8c0.3,0,0.1,0.5,0.1,0.7C5.4,7.6,5.4,7,5.6,6.8z"/>
	<path class="st0" d="M15.7,6.1c0.3,0-0.2,0.4-0.1,0.6c0,0.2,0.6,0.5,0.7,0.2c-0.1-0.4-0.4,0.2-0.6-0.2C15.8,6.6,16,6.6,16,6.3
		c0.2,0.1,0.2,0.3,0.4,0.3c0.2-0.2,0.5-0.3,0.4-0.9c0.1,0.1,0.1,0.3,0.4,0.3c-0.2,1.4,0.1,1,0,2.1c-0.2,0-0.1-0.3-0.1-0.5
		c-0.4,0.2,0,0.8,0,1c-0.3-0.6-0.9,0.4-1.4,0c0.4-0.1,0.2-0.1-0.1-0.5c-0.4,0.1-0.2,0.2-0.1,0.6c-0.3-0.1-0.5-0.5-0.3-0.8
		c-0.2,0.1-0.3,0.2-0.3,0.4c-0.3,0-0.2-0.4-0.5-0.3c0.1-0.1,0.4-0.2,0.1-0.3c0-0.2,0.6-0.3,0.1-0.4c0.1-0.2,0.1,0,0.3,0
		c0-0.1,0.3-0.7,0-0.9c0.1-0.5,0.5,0.4,0.4-0.3C15.5,6.5,15.6,6.5,15.7,6.1z"/>
	<path class="st0" d="M15.1,8.7c0,0.2-0.1,0.6,0.1,0.6c0.3,0-0.5,0.1-0.8-0.2C14.5,8.8,14.6,8.6,15.1,8.7z"/>
	<path class="st0" d="M11.1,6.1c0.1,0.3,0.5,0.6,0.3,0.9c0.2,0,0.5-0.4,0.1-0.4c0.8-0.3-0.2,0.9,0.5,1.1c-0.1,0.3-0.3,0-0.4,0
		C11.9,8,12,8.3,11.5,8.5c0.1,0.1,0.1,0.4,0.3,0.5c0.3,0.4-0.4-0.2-0.7-0.2c-0.2,0.4-0.1-0.3,0.3-0.1c0-0.2-0.4-0.2-0.4,0
		c0.3-0.7-0.5-0.8-1.1-1.4c0-0.4,0.4-0.3,0.4-0.7c0.1,0.2,0.5,0.1,0.4,0.5c0.4-0.1-0.1-0.3,0-0.6c0.4-0.2,0.1,0.5,0.5,0.3
		C11.2,6.6,11.1,6.4,11.1,6.1z"/>
	<path class="st0" d="M10,7.6c0.2,0,0.1,0.2,0,0.1c0,0.3,0.5,0.1,0.5,0.3c0,0.3-0.3,0.3-0.7,0.3c0-0.1,0.2-0.1,0.3-0.1
		c0-0.2-0.3-0.1-0.4-0.2C9.8,7.9,10,7.8,10,7.6z"/>
	<path class="st0" d="M27.8,9.1c-0.2,0,0.2,0.6-0.4,0.6c0-0.4,0.2-0.4,0.1-0.9c-0.2,0-0.3,0.2-0.6,0.1c-0.1,0.4,0.2,0.4,0.1,0.8
		c-0.4,0-0.4-0.3-0.4-0.6c0.2-0.2,0.4-0.4,0.4-0.7C27,8.3,27,8.5,27,8.6c-0.1,0-0.1-0.2-0.1-0.3c-0.1,0.1-0.2,0.2-0.4,0.1
		c0-0.2,0.1-0.3,0.1-0.4c0-0.4-0.2,0.2-0.6,0c-0.3,0.3,0.2-0.3,0.4-0.3c-0.1-0.3-0.6,0-0.4-0.6c0.1,0,0.1,0.1,0.1,0.2
		c0.3-0.8,1.1-0.1,1-1c0.1,0.1,0.1,0.3,0.4,0.3c0,0.3-0.4,0.2-0.3,0.6c0.6,0.5,1.3-1,1.8-0.1c0,0.3-0.4,0.2-0.4,0.4
		c0.1,0.2,0.2-0.1,0.4,0c0.3,0.7-0.3,0.6-0.1,1.5c-0.3-0.5-0.4,0.6-0.4-0.2c-0.3-0.1-0.2,0.7,0.1,0.5c0,0.2-0.3,0.1-0.3,0.3
		C28.2,9.1,27.9,9.6,27.8,9.1z"/>
	<path class="st0" d="M26.7,8.8c-0.1,0.3-0.1,0.6-0.4,0.6c0.2-0.6-0.3-0.4-0.3-0.9C26.5,8,25.8,9,26.7,8.8z"/>
	<path class="st0" d="M2.4,10.3c-0.2-0.2-0.1-0.6-0.3-0.9c0.1,0,0.2-0.1,0-0.1C2.1,9.6,1.7,9.7,1.5,9.9c0.2,0.3,0.1,0.4,0.3,0.9
		c-0.2,0-0.2-0.2-0.4-0.3c0.3,0.8-0.4,0.9,0.1,1.3c-0.9,0-0.1,0.1-0.6,0.6c0.4,0.2,0,0.4,0.3,0.6c0.5,0.2,1.1-0.2,1.8,0
		c0.2-0.5-0.4-0.1-0.3-0.6c0.4,0,0.3-0.2,0.6,0c0-0.3-0.2-0.3-0.3-0.5c0.2,0,0.3,0.1,0.4,0.2c-0.1-0.5-0.2-1-0.5-1.2
		c0.4,0,0.3,0.3,0.6,0c-0.3-0.8,0-0.8-0.4-1.5c0.3,0,0.4,0.3,0.6-0.1c-0.2,0-0.2-0.2-0.4-0.3C3,9.2,2.7,9.8,2.6,9.5
		c0.1,0,0.2-0.1,0-0.2C2.2,9.6,2.8,10.1,2.4,10.3z M2,12.9c0-0.3,0.1-0.3,0.3-0.3c0-0.1-0.1-0.1-0.1-0.2C2.5,11.9,2.6,13.2,2,12.9z"
		/>
	<path class="st0" d="M13.9,10.2c0,0.1-0.2,0.1-0.3,0.1c0.1,0.4,0.6-0.1,0.4-0.4c0.1-0.6,0.2,0.9,0.4,0.2c0.1,0.1,0.1,0.3,0.4,0.3
		c-0.1,0.1-0.2,0.3,0,0.3c0,0.2-0.1,0.1-0.1,0c-0.1,0.4-0.6,0.4-0.7,0.7c0.1,0,0.3,0.3,0.4,0.2c0.3,0.9-0.2,1.3-0.6,1.9
		c-0.2-0.2-0.5-0.4-1-0.3c0.1-0.2,0.3-0.2,0.3-0.4c-0.5-0.1-0.2,0.7-0.8,0.4c0.1-0.4,0.8-0.6,0-0.7c0.6-0.2,0.4,0,0.8-0.7
		c-0.5-0.1-0.2,0.6-0.7,0.4c0.1-0.5,0.6-0.5,1-0.7C12.6,11.4,13.4,10.4,13.9,10.2z"/>
	<path class="st0" d="M9.2,10.6c-0.4,0-0.5,0.3-0.8,0.4c-0.2-0.7-1.5-0.5-1.8,0c0.2,0,0.1,0.2,0,0.3c0.2,0,0.4,0,0.4,0.2
		c-0.5,0.1-0.6,0.6-0.8,1c0.6-0.1,0.8,1,0.8,0.8c0.3-0.4,0.5,0,0.7-0.6c0,0.1,0.1,0.2,0.3,0.2c0.1-0.6-0.7-0.2-0.7,0
		c0.2-0.4-0.1-0.5,0.1-0.6c0.5,0.2,1.1,0.6,1.1,0.9c0.1-0.5,0.3,0.2,0.4,0.2c0.3-0.7,0.9-0.7,0.3-1.3c0.2,0,0.2-0.2,0.4-0.1
		c0-0.5-0.8-0.5-0.1-0.9C9.3,10.9,9.2,10.7,9.2,10.6z M7.4,11.5c0.3-0.1,0.5,0.5,0.6,0c0.4,0.2-0.2,0.4-0.1,0.6
		C7.7,11.8,7.3,11.9,7.4,11.5z"/>
	<path class="st0" d="M24.6,12.1c0.1,0.1,0.5,0.2,0.7-0.1c0.3-0.1-0.1,0.7,0.4,0.5c-0.1,0.1-0.2,0.3,0,0.3c-0.1,0.2-0.2-0.1-0.4,0
		c0.2,0.5,0.4,0.3,0.8,0.5c-0.1,0.5-0.5,0.5-0.3,1c-0.4-0.5-0.5,0.4-0.8,0c0,0.6-0.1,0.4-0.3,0.1c-0.2,0.1,0,0.2-0.1,0.6
		c-0.3-0.3-0.1-0.3-0.6-0.2c0.1-0.4-0.5-0.9-0.7-0.5c0.1-0.6,0.4-1.1,0.1-1.8c0.3-0.4,0.8-0.5,0.6-1.2
		C24.3,11.4,25.1,11.7,24.6,12.1z"/>
	<path class="st0" d="M19.6,12.3c0-0.2,0.1-0.1,0.1,0c0.4,0,0.4-0.5,1-0.3c-0.2,0.8-0.2,0.3,0.1,0.9c-0.4-0.1-0.5,0.3-0.8,0
		c-0.3,0.1,0.2,0.2-0.1,0.4c0.4,0.1,0.4-0.2,0.7-0.1c-0.1,0.5-0.7,0.4-0.7,1c0.1-0.1,0.1-0.3,0.4-0.3c0.2,0.7-0.6,0.2-0.4,0.9
		c-0.5-0.4-1.3,0.4-1.1,0.4c-0.5,0,0-1-0.7-1.5c-0.1-0.6,1.1-0.6,0.7-1c0.1-0.1,0.9-0.6,0.8,0c0.1,0,0.1-0.1,0.3-0.1
		C19.9,12.5,19.8,12.4,19.6,12.3z"/>
	<path class="st0" d="M30.8,13.1c0.2,0,0.1-0.4,0.1-0.6c0.3,0.9,0,1.1,0.1,1.6c-0.1,0.4-0.4-0.1-0.3-0.5c-0.3,0.3-0.1,0.3-0.4,0
		c-0.1,0.1-0.5,0.9,0,0.7c-0.1,0.4-0.3-0.1-0.6,0c0-0.4,0.2-0.5,0.3-0.7c-0.1-0.3-0.6-0.2-0.5-0.8c-0.3,0.4,0.8,1.1-0.1,1.3
		c0-0.1,0.2-0.1,0.3-0.1c-0.1-0.4-1,0.2-0.6,0.4c-0.1,0.4-0.2-0.4-0.7-0.2c0-0.2,0-0.3-0.1-0.3c0.2,0.1,0.6,0,0.8,0
		c0.1-0.3-0.3-0.2-0.3-0.5c-0.1,0-0.1,0.2-0.1,0.3c-0.4,0-0.3-0.6-0.1-0.8c0.4,0.5,0.2-0.6,0.7-0.9c0.2,0,0.5,0.1,0.6-0.1
		c0.2,0,0.3,0.8,0.4,0.3C30.3,12.8,30.3,13.1,30.8,13.1z"/>
	<path class="st0" d="M15.9,18.7c0.1-0.2,0.3-0.3,0.7-0.3c-0.2-0.3-0.3-0.7-0.5-0.9c-0.4,0-0.2,0.7-0.7,0.6c0-0.4,0.1-0.2,0.3-0.1
		c-0.2-0.5-0.1-0.7,0.3-0.9c-0.1-0.2-0.2,0.1-0.4,0c0-0.3,0.8-0.8,0.8-0.1c0.5-0.1,0-0.3,0.3-0.6c-0.2,0.1-0.4,0.2-0.7,0.1
		c0.1-0.2,0.4-0.1,0.3-0.6c0.5,0.7,0.5-0.6,1.1-0.1C17.2,15.9,17,16,16.9,16c0.4,0.4,0.7,0.1,1.2,0.3c-0.3,0.3-0.5,0.6-0.4,1.3
		c-0.7,0-1.2,0.7-0.6,1C16.7,19,16.5,18.7,15.9,18.7z"/>
	<path class="st0" d="M3.3,16.5c-0.4-0.5,0.4,0,0.8-0.1C3.7,16.1,4.3,16.1,4,16c0.1-0.4,0.4,0,0.3,0.3c0.3-0.5,0.9-0.2,1,0.3
		c0.3-0.2-0.1-0.4,0.3-0.6c0.2,0.3,0.3,0.7,0.4,0c0.4,1.2-0.3,1.7-0.6,2.5c-0.2-0.1-0.3-0.2-0.4-0.5c-0.4,0.1,0.3,0.2,0.1,0.6
		c-0.3,0-0.4-0.1-0.4-0.5c0,0.4-0.3,0.6-0.7,0.9c-0.3,0-0.3-0.4-0.3-0.8c-0.1,0.1-0.1,0.3-0.4,0.3c0.2-0.2,0.2-0.4-0.1-0.5
		c0-0.2,1.2,0.2,1.7-0.3c-0.1-0.1-0.6-0.5,0-0.4c-0.5-0.3-0.6,0.1-0.8,0.1c-0.3-0.4-0.6,0.3-1.4,0.1c0-0.6,0.5-0.4,0.8-0.6
		c-0.1-0.1-0.3-0.6,0.1-0.4C3.6,16.5,3.4,16.3,3.3,16.5z"/>
	<path class="st0" d="M10.4,16.3c-0.2-0.2-0.6-0.1-0.8,0.1c0.1,0.2,0.7,0.5,0.3,0.8c-0.2-0.7-0.7-0.4-1.2-0.2c0.2,0,0.3,0.2,0,0.2
		c0,0.4,0.3,0.5,0.4,0.8c-0.2,0-0.5,0-0.7,0c0,0.7,0.7,0.7,0.3,1.2c0.2,0,0.3,0,0.3,0.3c0.8-0.2,0.7-0.3,1.4,0
		c0-0.2,0.2-0.1,0.3-0.3c-0.2,0-0.4-0.1-0.4-0.3c0.5,0.1,0.4-0.5,0.8-0.4C10.6,17.7,9.6,16.8,10.4,16.3z M8.8,18.2
		C9,18.2,9,18.4,9,18.5c0.5-0.2,1,0.5,0.8-0.3c0.8,0.6-0.7,0.7-0.8,0.7C8.8,18.8,8.9,18.7,8.8,18.2z"/>
	<path class="st0" d="M24.2,18.3c-0.4-0.1-0.3-0.1-0.6,0.1c0.1-0.7,0-0.4-0.1-0.9c0.3,0.3,0.9,0,0.6-0.3c-0.3,0.4-0.2-0.1,0-0.3
		c-0.2-0.1-0.7,0.2-0.7-0.2c0.2,0,0.2-0.3,0.3-0.4c-0.8-0.5-1,0.4-1.5,0.7c0.3,0,0.5,0.1,0.5,0.3c-1-0.2-1.3,0.4-2.2,0.3
		c-0.1,0.4-0.1,0.7,0.1,1c0.1-0.2,0.2-0.3,0-0.4c0.3,0.2,0.7-0.3,0.7,0c-0.2,0.2-1,0.5-0.6,0.9c0.2-0.3,0.1,0.5,0.1,0.6
		c0-0.2,0.4-0.2,0.4,0c-0.1,0.2-0.5,0.7-0.1,0.9c0-0.3,0.1-0.5,0.4-0.4c0.1-0.2-0.2-0.8,0.1-0.7c0.1,0.5,0.2,1.1,0,1.5
		c0.5-0.1,0-0.7,0.6-0.9c0.2,0.2,0.7,0.1,1.1,0.2c0-0.3-0.2-0.3-0.3-0.5C24,19.7,23.8,18.9,24.2,18.3z M23.3,19.7
		c-0.2,0-0.1-0.4-0.1-0.6c0.2,0,0.4,0,0.4-0.1C24.1,19.3,23.2,19.3,23.3,19.7z M22.1,18.3c0-0.4,0.2-0.5,0.6-0.4
		c0,0.2,0.1,0.3,0.1,0.5c0.1,0,0.1-0.2,0.1-0.3c0.1,0,0.1,0.2,0.3,0.2c0,0.1,0,0.2,0,0.3C22.6,18.5,22.6,18,22.1,18.3z M22.9,19.1
		c-0.2,0-0.1,0.4-0.1,0.6c-1,0.2-0.4-0.7-1.1-0.6c0-0.3,0.8-0.3,1.1-0.4c0.2,0,0,0.4,0.3,0.5C23,19.3,22.9,19.2,22.9,19.1z"/>
	<path class="st0" d="M26.3,19.6c0.2,0,0.1,0.2,0.1,0.5c0.6,0.1,1.3-0.2,1-0.6c0.4-0.2,0.5-0.1,0.8,0.2c0-0.1,0-0.2,0-0.3
		c0.1,0,0.2,0,0.1-0.1c-0.2,0-0.4-0.1-0.4-0.3c0.7,0,0.1,0,0.1-0.4c0.2-0.2,0.5,0.1,0.8-0.3c-0.1,0-0.3,0-0.3-0.2
		c0.1,0,0.2,0,0.1-0.1c-0.8,0.2-0.5-0.9-0.7-0.9c-0.4,0.1-0.7,0.3-1.1,0.1c-0.1,0.4-0.2,0.8-0.4,1c0-0.2-0.2-0.1-0.1,0.1
		c0.4,0,0.9-0.1,1,0.3c-0.7-0.2-0.6,0-0.7,0.3c-0.1,0-0.3,0-0.3-0.2c0.1,0,0.1-0.2-0.1-0.2c0,0.2,0,0.5,0,0.7c0.2,0.1,0.4-0.2,0.4,0
		C26.6,19.3,26.5,19.4,26.3,19.6z M27,19.3c-0.1,0.1-0.2,0.4,0,0.4C26.7,20.3,26.3,19.1,27,19.3z"/>
	<path class="st0" d="M10.8,16.9c0,0.3-0.1,0.3-0.3,0.3c0,0.2,0.3,0.1,0.4,0.2c0,0.2-0.3,0.1-0.3,0.3C10.3,17.5,10.2,16.8,10.8,16.9
		z"/>
	<path class="st0" d="M0.8,21.5c0-0.4,0.7,0.4,0.7,0c0.2,0,0.1,0.3,0,0.3c0,0.2,0.3,0.1,0.6,0.2c-0.3-0.3,0-0.4,0-0.7
		c-0.1,0-0.1,0.2-0.1,0.3c-0.2-0.2-0.5-0.2-0.8-0.2c0.3-0.8,0.9-0.9,1.5-0.4c0.4-0.1-0.4-0.3,0-0.6C2.9,20.5,3,20.8,3,21.2
		c-0.5,0-0.1,0.1-0.1,0.4c-0.2-0.2-0.3-0.4-0.5-0.6c-0.2,0.3,0.6,0.6-0.1,0.9c0.2,0.3,0.5-0.2,0.7,0.3c0.4-0.3,0.3-0.6,0.4-0.9
		c0.2,0.3,0.3,0.8,0.5,1.1c-0.2,0.3-0.9-0.4-0.7,0.7c-0.2,0-0.3-0.3-0.3-0.6c-0.2,0.2-0.3,0.4-0.6,0.1c0.1,0.4,0.5,0.5,0.7,0.8
		c-0.5-0.1-1.1-0.5-1.9,0c0-0.3,0.4-0.3,0.4-0.6c-0.3,0.1-0.6,0.6-0.7-0.2c-0.4-0.1-0.2,0.5-0.7,0.3c0.2-0.2,0.1-0.3-0.1-0.3
		c0-0.3,0.6-0.1,0.8-0.1c-0.2-0.2-0.9-0.1-0.4-0.6c0.3,0.5,0.4,0.1,0.8,0C1.1,21.8,1,21.6,0.8,21.5z"/>
	<path class="st0" d="M13.8,21c0-0.3,0.5,0.2,0.4-0.4c0.2,0.2,0.5,0.2,0.8,0.2c0,0.4-0.5,0.3-0.8,0.3c0.1,0.8-0.1,1.4-0.7,1.5
		c-0.3-0.3,0.1-0.3,0.1-0.6c-0.5-0.1-0.3,0.6-0.7,0.6c0.1,0.3,0.3,0.5,0.7,0.5c0.1,0.3-0.3,0.2-0.3,0.4c-0.2-0.2-0.2-0.7-0.4-0.2
		c-0.1-0.1-0.1-0.6-0.3-1.1c-0.2,0.2-0.6,0.1-0.6,0.6c-0.2-0.1-0.3-0.3-0.3-0.6c-0.3,0.1-0.3,0.3-0.7,0.3c-0.4-0.8,0.9-0.8,0.8-0.6
		c0,0.2,0.3,0.1,0.6,0.2c-0.3-0.1-0.2-0.6-0.4-0.8c0-0.2,0.7,0,0.7,0.3c0.4-0.2,0-0.7-0.4-0.5c0.1-0.3,0.4-0.5,0.8-0.4
		c0,0.2,0,0.5,0,0.7c0.3-0.1,0.3,0,0.8-0.1C14,21.1,14,21,13.8,21z"/>
	<path class="st0" d="M19.7,21.8c0.1,0.4-0.3,0.3-0.3,0.6c-0.2-0.4-0.4-0.2-0.6,0.1c-0.4-0.4,0.4-0.7,0.7-0.4c0-0.5-0.6-0.4-0.7-0.8
		c-0.4,0.1,0.3,0.2,0.1,0.6c-0.5-0.3-0.3-0.2-0.6,0.3c-0.1,0-0.1-0.2-0.1-0.3c-0.2,0-0.4,0.1-0.4,0.3c0.5,0.1,0.5,0.8,1,0.5
		c-0.2,0.3-0.2,0.7-0.6,0.7c0-0.2,0.1-0.6-0.1-0.6c-0.3,0.1,0.2,0.2-0.1,0.4c0.3,0.3,0.4,0.5,0.8,0.3c0,0.1,0,0.3,0,0.4
		c-0.4,0-0.7-0.4-1.2-0.2c-0.3-0.4,0-0.5-0.4-0.6c0.4-0.5-0.2-1.1,0.7-1.3c0.2-0.5-0.4-0.1-0.3-0.6c0.5,0.1,0.8-0.1,0.8-0.6
		c0.4,0.5,0.5-0.1,0.8,0.2C19.3,21.4,19.2,21.3,19.7,21.8z"/>
	<path class="st0" d="M23.4,23.9c0.2,0,0.4,0,0.6,0.2c0.3-0.1,0.5-1.3,0-1c0.5,0.1-0.3,0.8-0.4,0.3c0.8-0.1-0.2-0.3-0.3-0.5
		c0.5,0,0.3-0.4,0.8-0.1c-0.4-0.5-0.9-0.8-0.8,0c-0.5-0.3,0.1-1-0.4-1.4c0,0.3-0.4,0.3-0.4,0.6c0.2,0,0.4,0,0.4,0.2
		c-0.5-0.1-0.6,0.2-0.8,0.4c0.6,0,0.1,0.3,0,0.4c0.5,0.1,0,0.3,0.3,0.6c-0.2,0-0.3-0.1-0.4-0.2c0.2,0.4-0.3,0.7,0,0.7
		c0-0.2,0.2-0.2,0.3,0c-0.2,0.1-0.3,0.2-0.4,0.3c0.1,0,0.2,0.1,0.1,0.3c0.3,0.2,0.3-0.7,0.6-0.1c-0.2,0.2-0.7,0.7-0.4,0.9
		c0.3-0.2,0.3-0.4,0.4-0.6c0.2,0,0.1,0.2,0.1,0.5c0.3-0.3,0.5-0.1,0.8-0.3C22.6,24.7,24.2,24.2,23.4,23.9z M23.2,23.7
		c-0.2-0.1-0.3-0.2-0.5-0.3C22.7,22.9,23.2,23.3,23.2,23.7z"/>
	<path class="st0" d="M8.6,21.7c-0.2,0.1-0.3,0.5-0.4,0.7C7.6,22.3,8.2,21.7,8.6,21.7z"/>
	<path class="st0" d="M28.4,22c0,0.2,0.1,0.1,0.1,0c0.4,0.2-0.2,0.4-0.1,0.6c0.3,0.1,0.3-0.3,0.7-0.1c0,0.6,0,0.3,0.4,0.3
		c-0.1,0.1-0.2,0.4,0,0.4c-0.1,0.4-0.4-0.1-0.7,0c0.2,0.1,0.2,0.6,0.7,0.5c-0.6,0.4-0.7,0.9-0.8,0.9c-0.2,0.5-0.3-0.4-0.5-0.3
		c0.2-0.2,0.5-0.2,0.7-0.4c-0.1-0.5-0.7-0.4-1-0.6c0-0.5,0.2-0.6,0.1-1.2c0.2,0,0.3-0.2,0.6-0.1C28.6,21.9,28.5,22,28.4,22z"/>
	<path class="st0" d="M6.8,22.9c0-0.4-0.1-0.6-0.3-0.8c0,0.4-0.3,0.4-0.6,0.4c-0.1,0.3,0.2,0.9-0.3,0.7c0.2,0.5,0.6,0.4,0,0.7
		c0.6,0.4,0.3,0.2,0.7-0.1c0.2,0.3,0,0.2,0,0.6c0.1,0,0.3,0,0.4,0c0-0.3-0.2-0.3-0.1-0.6c0.3,0.3,0.4,0,0.6-0.1
		c-0.3,0.4-0.1,0.9-0.1,0.6c0.1-0.5,0.5,0.1,0.6,0.2c-0.1-0.7,0.2-0.8,0.4-0.9c-0.3-0.2,0.2-0.9-0.3-1.2c0,0.9-0.6-0.5-0.8,0.1
		c0.3-0.1,0.5,0.5,0.3,0.5C7.1,22.7,7,22.7,6.8,22.9z M6.2,23c0.3,0.2,0.5-0.1,0.8,0.3C6.9,23.6,6.1,23.4,6.2,23z"/>
	<path class="st0" d="M10.9,22.7c0.1-0.1,0.3-0.1,0.8-0.1c0,0.3,0.4,0.2,0.3,0.6c0.1-0.1,0.2-0.3,0.3-0.4c0.1,0.1,0.2,0.2,0.3,0
		c0.3,0.2-0.5,0.3-0.4,0.7c-0.2,0-0.5,0-0.7,0c0.1-0.2,0.1-0.6,0.4-0.3c0-0.3-0.4-0.2-0.4-0.5C11.4,23.1,11.3,23.1,10.9,22.7z"/>
	<path class="st0" d="M19.5,28.2c-0.3-0.2,0.6-0.2,0.1-0.7c0.2,0.2,0.9,0.1,1,0.5C21,28.1,19.6,27.7,19.5,28.2z"/>
	<path class="st0" d="M21.6,27.3c-0.6-0.2-0.1-0.8-1.1-0.5c0.3,0,0.7,0.7,0.4,0.8c-0.2-0.2-0.1-0.7-0.5-0.6
		c-0.1,0.7,0.5,0.2,0.5,1.1c-0.1,0-0.2,0.1-0.3,0.1c-0.5-0.4-1.4,0.1-1.1,0.4c0-0.2,0.2-0.4,0.3-0.1c-0.3,0-0.3,0.4-0.3,0.7
		c0.5,0.6,1.4-0.2,1.4,0.6c0.5-0.1,0.2-1.2,1-1c0-0.2,0.1-0.6-0.1-0.6c0.1,0.2-0.5,0-0.6-0.2C21.3,27.9,21.4,27.6,21.6,27.3z
		 M20.1,28.4c0.4,0,0.2,0.1,0.1,0.3c0.3,0,0.5-0.1,0.6-0.3c0.4,0.1,0.2,0.2,0.1,0.6c0.7,0.3-0.3-0.1-0.7,0
		C20.2,28.7,20.1,28.6,20.1,28.4z"/>
	<path class="st0" d="M21.5,27c0.2-0.3,0.3-0.2,0.7-0.1c0,0.4-0.2,0.5-0.4,0.6c0,0.1,0.5,0.5,0.4,0.2c0.4,0-0.2,0.3,0,0.6
		c0.2,0.6-0.4-1.1-0.6-0.2C21.1,27.6,22.4,27.2,21.5,27z"/>
	<path class="st0" d="M14,27c-0.3-0.3,0.2,0,0.4,0c-0.3,0.2,0.3,0.5-0.3,0.4c0,0.1,0.2,0.1,0.3,0.2c0.2,0,0.1-0.3,0.1-0.4
		c0.5,0.4,1.1-0.1,1.4,0.6c0.4-0.1-0.3-0.2-0.1-0.6c0.3,0.1,0.6,0.3,0.5,0.8c-0.3,0-0.5,0.1-0.6,0.3c0.4,0.6,0.4-0.5,0.8-0.3
		c-0.4,0.2-0.1,0.7,0.1,0.5c0.4,0-0.3,0.4,0.3,0.3c-0.5,0.5-0.2,0.8-1.5,0.4c0-0.2,0.2-0.2,0.3-0.4c-0.4-0.8-1,0.5-1.7,0.1
		c-0.1,0.3,0.6,0.5,0.7,0.2c-0.1-0.3,0.1,0.3,0.1,0.7c0.6-0.4-0.2,0.3,0.3,0.5c0.2,0,0.1-0.4,0.1-0.6c0.2,0,0.4,0,0.6,0
		c0.1,0.3-0.2,0.9,0.1,0.9c-0.4,0.2-0.9,0.1-1.2-0.3c0,0.4,0.5,0.3,0.3,0.9c-0.3-0.3-0.5,0-0.8,0c0.1-0.1,0.1-0.2,0.1-0.4
		c0.2,0,0.2,0.1,0.4,0.2c0-0.1-0.1-0.2-0.1-0.3c-0.5,0.1-0.7,0.4-1.1,0.1c0-0.3,0.5-0.1,0.4-0.4c-0.2-0.1-0.4,0.2-0.7-0.3
		c0.1-0.2,0.2-0.3,0.4-0.3c-0.1-0.4-0.2-0.2-0.6-0.2c0.2-0.6,0.3-0.8-0.3-1.4c0.4,0,0.8,0.1,0.7,0.6c0.2-0.4,0.1-0.8,0-1.3
		c0.2-0.2,0.3-0.2,0.6,0C14.2,27.1,14.1,27,14,27z"/>
	<path class="st0" d="M16.5,29.4c0.3,0-0.2,0.4,0,0.7c-0.5,0.2-0.2-0.5-0.3-0.8C16.3,29.5,16.5,29.6,16.5,29.4z"/>
	<path class="st0" d="M10.3,27.5c-0.1,0-0.2,0.1-0.3,0.1c-0.7-0.9-0.4,1.2-1.1,1c0,0.2,0,0.4,0,0.6c0.7,0.6,1.7-0.1,2.2-0.9
		c-0.4-0.3-0.3,0.7-0.4,0.1c1-0.7-0.1-0.9,0.8-1.5c-0.6-0.1-0.6,0.5-1.1,0.6c0-0.3-0.3-0.9-0.4-0.5C10.2,27.3,10.3,27.4,10.3,27.5z
		 M10.4,28.3c0.4,0.3-0.7,0.6-0.8,0.3C9.8,28.3,10.3,28.8,10.4,28.3z"/>
	<path class="st0" d="M19.7,3.2c0.5-0.1,0.5,0.7,0.3,0.9c-0.4-0.2-0.4,0-0.7-0.2C19.4,3.7,19.8,3.7,19.7,3.2z"/>
	<path class="st0" d="M21.3,7.8c0.3,0.4,0.4-0.8,1-0.6c0,0.6-0.2,0.8-0.1,1.3c-0.2,0.1-0.5,0.1-0.4,0.6c-1.1,0.5-1.3-0.2-1.5,0.1
		c-0.4-0.5,0.4-0.7-0.1-1.2c0.5,0,0.1-0.1,0.1-0.4c0.5,0.1,0.5-0.2,1-0.1c-0.2-0.2-0.1-0.2,0-0.4c0.1,0,0.1,0.2,0.1,0.3
		c0.3,0,0-0.7,0.3-0.7C22.2,6.9,21.4,7.5,21.3,7.8z"/>
</g>
</svg>
