<?xml version="1.0" encoding="utf-8"?>
<!-- Generator: Adobe Illustrator 24.0.2, SVG Export Plug-In . SVG Version: 6.00 Build 0)  -->
<svg version="1.1" id="Layer_1" xmlns="http://www.w3.org/2000/svg" xmlns:xlink="http://www.w3.org/1999/xlink" x="0px" y="0px"
	 viewBox="0 0 60 75" style="enable-background:new 0 0 60 75;" xml:space="preserve">
<path d="M30,47c15.4,0,28-7.6,28-17S45.4,13,30,13S2,20.6,2,30S14.6,47,30,47z M16.5,42c-1.9,0-3.5-1.6-3.5-3.5s1.6-3.5,3.5-3.5
	s3.5,1.6,3.5,3.5C20,40.4,18.4,42,16.5,42z M48.5,30c1.9,0,3.5,1.6,3.5,3.5S50.4,37,48.5,37S45,35.4,45,33.5
	C45,31.6,46.6,30,48.5,30z M43,17c1.7,0,3,1.3,3,3s-1.3,3-3,3s-3-1.3-3-3C40,18.3,41.3,17,43,17z M39,27c1.7,0,3,1.3,3,3s-1.3,3-3,3
	s-3-1.3-3-3C36,28.3,37.3,27,39,27z M36,40c0,2.2-1.8,4-4,4s-4-1.8-4-4s1.8-4,4-4C34.2,36,36,37.8,36,40z M30.5,15
	c1.9,0,3.5,1.6,3.5,3.5S32.4,22,30.5,22S27,20.4,27,18.5C27,16.6,28.6,15,30.5,15z M25,25c1.7,0,3,1.3,3,3s-1.3,3-3,3s-3-1.3-3-3
	C22,26.3,23.3,25,25,25z M17,17c1.7,0,3,1.3,3,3s-1.3,3-3,3s-3-1.3-3-3C14,18.3,15.3,17,17,17z M10,23c2.2,0,4,1.8,4,4s-1.8,4-4,4
	s-4-1.8-4-4C6,24.8,7.8,23,10,23z M30,49C17.3,49,6.3,43.9,2,36.8c0,0.1,0,0.1,0,0.2c0,9.4,12.6,17,28,17s28-7.6,28-17
	c0-0.1,0-0.1,0-0.2C53.7,43.9,42.7,49,30,49z M25,27c0.6,0,1,0.4,1,1s-0.4,1-1,1s-1-0.4-1-1S24.4,27,25,27z M39,29c0.6,0,1,0.4,1,1
	s-0.4,1-1,1s-1-0.4-1-1S38.4,29,39,29z M30.5,17c0.8,0,1.5,0.7,1.5,1.5S31.3,20,30.5,20S29,19.3,29,18.5S29.7,17,30.5,17z M48.5,32
	c0.8,0,1.5,0.7,1.5,1.5S49.3,35,48.5,35S47,34.3,47,33.5S47.7,32,48.5,32z M32,38c1.1,0,2,0.9,2,2s-0.9,2-2,2c-1.1,0-2-0.9-2-2
	S30.9,38,32,38z M43,19c0.6,0,1,0.4,1,1s-0.4,1-1,1s-1-0.4-1-1S42.4,19,43,19z M17,19c0.6,0,1,0.4,1,1s-0.4,1-1,1s-1-0.4-1-1
	S16.4,19,17,19z M10,25c1.1,0,2,0.9,2,2s-0.9,2-2,2s-2-0.9-2-2S8.9,25,10,25z M16.5,37c0.8,0,1.5,0.7,1.5,1.5S17.3,40,16.5,40
	c-0.8,0-1.5-0.7-1.5-1.5S15.7,37,16.5,37z"/>
</svg>
