<svg id="Layer_1" data-name="Layer 1" xmlns="http://www.w3.org/2000/svg" viewBox="0 0 56 56"><title>paintbrush</title><path d="M21.27,19.4A41.22,41.22,0,0,1,28,6.58,41.22,41.22,0,0,1,34.73,19.4a6.73,6.73,0,0,0-2.84,2.42C31.13,20.4,29.89,19,28,19s-3.13,1.4-3.89,2.82A6.73,6.73,0,0,0,21.27,19.4ZM37,41.5v9a57.6,57.6,0,0,1-9,.5,57.6,57.6,0,0,1-9-.5v-9a57.6,57.6,0,0,1,9-.5A57.6,57.6,0,0,1,37,41.5ZM32,43a3,3,0,1,0,3,3A3,3,0,0,0,32,43Zm0,4a1,1,0,1,0-1-1A1,1,0,0,0,32,47ZM20,52.68V56H36V52.68A71.24,71.24,0,0,1,28,53,71.24,71.24,0,0,1,20,52.68ZM20,27.5a48.45,48.45,0,0,0,1.35,11.69C22.93,39.07,25.07,39,28,39s5.07.07,6.65.19A48.45,48.45,0,0,0,36,27.5a26.82,26.82,0,0,0-.74-6.12A4,4,0,0,0,33,25a1,1,0,0,1-2,.2c-.22-1.09-1.25-4.2-3-4.2s-2.8,3.11-3,4.2a1,1,0,0,1-2-.2,4,4,0,0,0-2.26-3.62A26.82,26.82,0,0,0,20,27.5ZM54,0H2A2,2,0,0,0,0,2V54a2,2,0,0,0,2,2H18V52.29c-1-.34-1-.76-1-1.15V40.86c0-.52,0-1.08,2.34-1.45A51.31,51.31,0,0,1,18,27.5,30.12,30.12,0,0,1,19,20a.53.53,0,0,1,.12-.41A41.83,41.83,0,0,1,27.25,4.33a1.06,1.06,0,0,1,1.5,0,41.86,41.86,0,0,1,8.11,15.2A.56.56,0,0,1,37,20a30,30,0,0,1,1,7.54,51.31,51.31,0,0,1-1.34,11.91c2.34.37,2.34.93,2.34,1.45V51.14c0,.39,0,.81-1,1.15V56H54a2,2,0,0,0,2-2V2A2,2,0,0,0,54,0Z"/></svg>