<svg id="Layer_1" data-name="Layer 1" xmlns="http://www.w3.org/2000/svg" viewBox="0 0 56 56"><title>pencil</title><path d="M23,15.92H33L39.77,33.2a5.13,5.13,0,0,0-2.77-1c-1.75,0-2.93,1.21-3.53,3.6A6.47,6.47,0,0,0,28,32.22a6.47,6.47,0,0,0-5.47,3.6c-.6-2.39-1.78-3.6-3.53-3.6a5.13,5.13,0,0,0-2.77,1Zm.79-2,3.27-8.35a1.06,1.06,0,0,1,1.88,0l3.27,8.35ZM14,40.64A5.42,5.42,0,0,1,14.27,39c.83-2.65,3.27-4.78,4.73-4.78s1.83,2.85,1.94,4.55c0,.62.06,1.24.06,1.87V56H14ZM23,56V41.91A11.62,11.62,0,0,1,23.38,39c.78-2.84,2.64-4.75,4.62-4.75s3.84,1.91,4.62,4.75A11.62,11.62,0,0,1,33,41.91V56Zm12,0V40.64c0-.63,0-1.25.06-1.87.11-1.7.51-4.55,1.94-4.55s3.9,2.13,4.73,4.8A5,5,0,0,1,42,40.65V56Zm21-2a2,2,0,0,1-2,2H44V39a2.55,2.55,0,0,0-.19-1L34.6,14.54v0L30.8,4.84a3.05,3.05,0,0,0-5.6,0l-3.8,9.68v0L12.19,38A2.55,2.55,0,0,0,12,39V56H2a2,2,0,0,1-2-2V2A2,2,0,0,1,2,0H54a2,2,0,0,1,2,2Z"/></svg>