<?xml version="1.0" encoding="utf-8"?>
<!-- Generator: Adobe Illustrator 24.0.2, SVG Export Plug-In . SVG Version: 6.00 Build 0)  -->
<svg version="1.1" id="Layer_1" xmlns="http://www.w3.org/2000/svg" xmlns:xlink="http://www.w3.org/1999/xlink" x="0px" y="0px"
	 viewBox="0 0 60 75" style="enable-background:new 0 0 60 75;" xml:space="preserve">
<g>
	<path d="M57.9,36.2c-0.7-4.3-6.6-8.8-17.6-13.3c-5.6-2.3-11.3-4.2-17.1-5.8c-0.1,0-0.1,0-0.2,0H23c-0.5-0.1-1,0.3-1.1,0.9
		c-0.7,5.2-5.1,9.1-10.4,9.1c-0.8,0-1.6-0.1-2.3-0.3c-2.6-0.6-4.9-2.1-6.3-4.3c-0.3-0.5-1-0.6-1.4-0.2c0,0-0.1,0.1-0.1,0.1
		C1.1,22.5,1,22.7,1,23v13.3c-0.6,0.3-1,1-1,1.7v3c0,1.1,0.9,2,2,2h56c1.1,0,2-0.9,2-2v-2C60,37.7,59.1,36.6,57.9,36.2z M47,36
		c0-0.3,0.1-0.5,0.3-0.7c0.4-0.4,1-0.4,1.4,0c0.2,0.2,0.3,0.5,0.3,0.7H47z M51.1,33.6c0.1-0.1,0.1-0.2,0.2-0.3c0.4-0.4,1-0.4,1.4,0
		c0.1,0.1,0.2,0.2,0.2,0.3C53,33.7,53,33.9,53,34c0,0.3-0.1,0.5-0.3,0.7c-0.4,0.4-1,0.4-1.4,0C51.1,34.5,51,34.3,51,34
		C51,33.9,51,33.7,51.1,33.6z M47.3,31.3c0.4-0.4,1-0.4,1.4,0c0.2,0.2,0.3,0.5,0.3,0.7c0,0.3-0.1,0.5-0.3,0.7c-0.4,0.4-1,0.4-1.4,0
		C46.9,32.3,46.9,31.7,47.3,31.3z M43.3,29.3c0.4-0.4,1-0.4,1.4,0c0.2,0.2,0.3,0.5,0.3,0.7c0,0.3-0.1,0.5-0.3,0.7
		c-0.4,0.4-1,0.4-1.4,0C42.9,30.3,42.9,29.7,43.3,29.3z M43.3,33.3c0.4-0.4,1-0.4,1.4,0c0.2,0.2,0.3,0.5,0.3,0.7
		c0,0.3-0.1,0.5-0.3,0.7c-0.4,0.4-1,0.4-1.4,0C42.9,34.3,42.9,33.7,43.3,33.3z M38.1,28.6C38.1,28.6,38.1,28.6,38.1,28.6l1.9-3.7
		c0.6,0.3,1.2,0.5,1.8,0.8l-1.9,3.9C39.7,29.8,39.4,30,39,30c-0.2,0-0.3,0-0.5-0.1C38.1,29.6,37.9,29,38.1,28.6z M33.1,26.6
		C33.1,26.6,33.1,26.6,33.1,26.6l1.9-3.7c0.6,0.2,1.2,0.5,1.9,0.7l-1.9,3.9C34.7,27.8,34.4,28,34,28c-0.2,0-0.3,0-0.5-0.1
		C33.1,27.6,32.9,27,33.1,26.6z M28.1,24.6C28.1,24.6,28.1,24.6,28.1,24.6l1.7-3.5c0.6,0.2,1.3,0.4,1.9,0.6l-1.9,3.7
		C29.7,25.8,29.4,26,29,26c-0.2,0-0.3,0-0.5-0.1C28.1,25.6,27.9,25,28.1,24.6z M24,22c0-0.1,0-0.1,0-0.2c0-0.1,0-0.1,0.1-0.2
		c0-0.1,0.1-0.1,0.1-0.2c0-0.1,0.1-0.1,0.1-0.1c0.4-0.4,1-0.4,1.4,0c0,0,0.1,0.1,0.1,0.1c0,0.1,0.1,0.1,0.1,0.2c0,0.1,0,0.1,0.1,0.2
		c0,0.1,0,0.1,0,0.2c0,0.3-0.1,0.5-0.3,0.7c0,0-0.1,0.1-0.1,0.1c-0.1,0-0.1,0.1-0.2,0.1c-0.1,0-0.1,0-0.2,0.1c-0.1,0-0.1,0-0.2,0
		C24.5,23,24,22.6,24,22C24,22,24,22,24,22z M24.5,26c2.5,0,4.5,2,4.5,4.5c0,2.5-2,4.5-4.5,4.5C22,35,20,33,20,30.5S22,26,24.5,26z
		 M3,32c2.2,0,4.2-1.4,4.8-3.6c-0.1,0-0.3-0.1-0.4-0.2c0.4,0.2,0.9,0.3,1.3,0.4c0.3,0.1,0.7,0.1,1,0.2C8.9,31.9,6.1,34,3,34V32z
		 M2,41v-3h55c0.6,0,1,0.4,1,1l0,2H2z"/>
	<circle cx="24.5" cy="30.5" r="2.5"/>
</g>
</svg>
